<svg width="43" height="43" viewBox="0 0 43 43" fill="none" xmlns="http://www.w3.org/2000/svg">
<circle cx="21.5" cy="21.5" r="21.5" fill="#6B47DB"/>
<path d="M15.1133 24.3887H12.2881L11.751 26H10.0376L12.9487 18.1797H14.4419L17.3691 26H15.6558L15.1133 24.3887ZM12.7231 23.0835H14.6782L13.6953 20.1562L12.7231 23.0835ZM20.7109 23.2446V26H19.0996V18.1797H22.1504C22.7376 18.1797 23.2533 18.2871 23.6973 18.502C24.1449 18.7168 24.4886 19.0229 24.7285 19.4204C24.9684 19.8143 25.0884 20.2637 25.0884 20.7686C25.0884 21.5348 24.8252 22.14 24.2988 22.584C23.776 23.0244 23.0509 23.2446 22.1235 23.2446H20.7109ZM20.7109 21.9395H22.1504C22.5765 21.9395 22.9006 21.8392 23.1226 21.6387C23.3481 21.4382 23.4609 21.1517 23.4609 20.7793C23.4609 20.3962 23.3481 20.0864 23.1226 19.8501C22.897 19.6138 22.5854 19.492 22.188 19.4849H20.7109V21.9395ZM28.8115 23.2446V26H27.2002V18.1797H30.251C30.8382 18.1797 31.3538 18.2871 31.7979 18.502C32.2454 18.7168 32.5892 19.0229 32.8291 19.4204C33.069 19.8143 33.189 20.2637 33.189 20.7686C33.189 21.5348 32.9258 22.14 32.3994 22.584C31.8766 23.0244 31.1515 23.2446 30.2241 23.2446H28.8115ZM28.8115 21.9395H30.251C30.6771 21.9395 31.0011 21.8392 31.2231 21.6387C31.4487 21.4382 31.5615 21.1517 31.5615 20.7793C31.5615 20.3962 31.4487 20.0864 31.2231 19.8501C30.9976 19.6138 30.686 19.492 30.2886 19.4849H28.8115V21.9395Z" fill="white"/>
</svg>
