<svg width="28" height="35" viewBox="0 0 28 35" fill="none" xmlns="http://www.w3.org/2000/svg">
<path opacity="0.2" fill-rule="evenodd" clip-rule="evenodd" d="M25.0128 19.7624L15.7502 29.025V1.74997C15.7502 0.783988 14.9662 0 14.0002 0C13.0342 0 12.2502 0.783988 12.2502 1.74997V29.025L2.98764 19.7624C2.30515 19.08 1.19742 19.08 0.513179 19.7624C-0.17106 20.4467 -0.17106 21.5544 0.513179 22.2369L12.763 34.4867C13.4472 35.1709 14.555 35.1709 15.2374 34.4885L27.4873 22.2369C27.8285 21.8957 28 21.4477 28 20.9997C28 20.5517 27.8285 20.1037 27.4873 19.7624C26.8048 19.08 25.697 19.08 25.0128 19.7624Z" fill="black"/>
</svg>
