<svg width="74" height="75" viewBox="0 0 74 75" fill="none" xmlns="http://www.w3.org/2000/svg">
<ellipse cx="40.4423" cy="33.4444" rx="33.4423" ry="33.4444" fill="#1991EB"/>
<g clip-path="url(#clip0)">
<path d="M51.7647 46.6743H46.6889L47.0451 42.3308H44.5517L44.1955 46.6743H33.6878L33.3316 42.3308H30.8383L31.1945 46.6743H26.1187L23.2692 27.8527L30.393 16.2703H47.4903L54.6142 27.8527L51.7647 46.6743ZM46.0656 22.0615H41.4859L41.7912 24.2332H36.0921L36.3975 22.0615H31.8178L28.9683 27.8527L30.393 39.4352H47.4903L48.9151 27.8527L46.0656 22.0615ZM43.5722 35.5913C43.1788 35.5913 42.8598 34.3856 42.8598 32.8984C42.8598 31.4111 43.1788 30.2054 43.5722 30.2054C43.9656 30.2054 44.2846 31.4111 44.2846 32.8984C44.2846 34.3856 43.9656 35.5913 43.5722 35.5913ZM34.5783 35.8157C34.1849 35.8157 33.8659 34.61 33.8659 33.1228C33.8659 31.6355 34.1849 30.4298 34.5783 30.4298C34.9717 30.4298 35.2907 31.6355 35.2907 33.1228C35.2907 34.61 34.9717 35.8157 34.5783 35.8157Z" fill="white"/>
</g>
<defs>
<clipPath id="clip0">
<rect width="34.3461" height="33.4444" fill="white" transform="translate(23.2692 16.2703)"/>
</clipPath>
</defs>
</svg>
