<svg width="16" height="16" viewBox="0 0 16 16" fill="none" xmlns="http://www.w3.org/2000/svg">
<path d="M8.02008 9.06695H8.0235C8.14416 9.06695 8.2634 9.03194 8.35987 8.9682L8.38604 8.95139C8.39174 8.94768 8.3977 8.94431 8.40369 8.94031L8.70847 8.68815L15.9832 2.68491C15.9682 2.66412 15.9425 2.6499 15.9152 2.6499H0.0845229C0.0648889 2.6499 0.0466667 2.65701 0.0321569 2.66896L7.64327 8.94227C7.73919 9.02169 7.87605 9.06695 8.02008 9.06695ZM0 3.50054V12.3991L5.45229 7.99464L0 3.50054ZM10.5534 8.02452L16 12.4014V3.53014L10.5534 8.02452ZM8.82173 9.45312C8.6046 9.63126 8.3206 9.72946 8.02235 9.72946C7.72298 9.72946 7.43924 9.63184 7.22269 9.45453L5.97393 8.42462L0 13.2497V13.2651C0 13.3109 0.039268 13.3499 0.0856471 13.3499H15.9155C15.961 13.3499 16 13.3109 16 13.2648V13.2506L10.0312 8.45482L8.82173 9.45312Z" fill="white"/>
</svg>
