<svg width="67" height="67" viewBox="0 0 67 67" fill="none" xmlns="http://www.w3.org/2000/svg">
<circle cx="33.4423" cy="33.4423" r="33.4423" fill="#1991EB"/>
<g clip-path="url(#clip0)">
<path d="M17.7307 16.7307L20.4859 47.6433L32.8544 51.0769L45.2553 47.6381L48.0158 16.7307H17.7307ZM42.8941 45.6708L32.9248 48.4338V48.4495L32.8988 48.4416L32.8725 48.4495V48.4338L22.9034 45.6708L20.5474 19.2576H45.2504L42.8941 45.6708ZM37.5272 34.5144L37.0889 39.4299L32.8648 40.57L32.8556 40.5726L28.6341 39.4351L28.3641 36.4085H24.5575L25.0884 42.3625L32.8556 44.5176H32.8597H32.8648L32.8725 44.515L40.632 42.3625L41.6732 30.7233H27.8553L27.5098 26.841H42.0043H42.0174L42.3566 23.0499H23.365L24.388 34.5143H37.5272V34.5144Z" fill="white"/>
</g>
<defs>
<clipPath id="clip0">
<rect width="34.3462" height="34.3462" fill="white" transform="translate(16 16)"/>
</clipPath>
</defs>
</svg>
