<svg width="195" height="58" viewBox="0 0 195 58" fill="none" xmlns="http://www.w3.org/2000/svg">
<path d="M5.016 31.248V48H1.656V31.248H5.016ZM24.8477 34.512C26.4797 34.512 27.7917 35.016 28.7837 36.024C29.7917 37.016 30.2957 38.408 30.2957 40.2V48H26.9357V40.656C26.9357 39.616 26.6717 38.824 26.1437 38.28C25.6157 37.72 24.8957 37.44 23.9837 37.44C23.0717 37.44 22.3437 37.72 21.7997 38.28C21.2717 38.824 21.0077 39.616 21.0077 40.656V48H17.6477V40.656C17.6477 39.616 17.3837 38.824 16.8557 38.28C16.3277 37.72 15.6077 37.44 14.6957 37.44C13.7677 37.44 13.0317 37.72 12.4877 38.28C11.9597 38.824 11.6957 39.616 11.6957 40.656V48H8.33569V34.704H11.6957V36.312C12.1277 35.752 12.6797 35.312 13.3517 34.992C14.0397 34.672 14.7917 34.512 15.6077 34.512C16.6477 34.512 17.5757 34.736 18.3917 35.184C19.2077 35.616 19.8397 36.24 20.2877 37.056C20.7197 36.288 21.3437 35.672 22.1597 35.208C22.9917 34.744 23.8877 34.512 24.8477 34.512ZM36.8441 36.648C37.2761 36.008 37.8681 35.488 38.6201 35.088C39.3881 34.688 40.2601 34.488 41.2361 34.488C42.3721 34.488 43.3961 34.768 44.3081 35.328C45.2361 35.888 45.9641 36.688 46.4921 37.728C47.0361 38.752 47.3081 39.944 47.3081 41.304C47.3081 42.664 47.0361 43.872 46.4921 44.928C45.9641 45.968 45.2361 46.776 44.3081 47.352C43.3961 47.928 42.3721 48.216 41.2361 48.216C40.2441 48.216 39.3721 48.024 38.6201 47.64C37.8841 47.24 37.2921 46.728 36.8441 46.104V48H33.4841V30.24H36.8441V36.648ZM43.8761 41.304C43.8761 40.504 43.7081 39.816 43.3721 39.24C43.0521 38.648 42.6201 38.2 42.0761 37.896C41.5481 37.592 40.9721 37.44 40.3481 37.44C39.7401 37.44 39.1641 37.6 38.6201 37.92C38.0921 38.224 37.6601 38.672 37.3241 39.264C37.0041 39.856 36.8441 40.552 36.8441 41.352C36.8441 42.152 37.0041 42.848 37.3241 43.44C37.6601 44.032 38.0921 44.488 38.6201 44.808C39.1641 45.112 39.7401 45.264 40.3481 45.264C40.9721 45.264 41.5481 45.104 42.0761 44.784C42.6201 44.464 43.0521 44.008 43.3721 43.416C43.7081 42.824 43.8761 42.12 43.8761 41.304ZM48.8857 41.304C48.8857 39.96 49.1497 38.768 49.6777 37.728C50.2218 36.688 50.9498 35.888 51.8618 35.328C52.7898 34.768 53.8218 34.488 54.9578 34.488C55.9498 34.488 56.8138 34.688 57.5498 35.088C58.3018 35.488 58.9018 35.992 59.3498 36.6V34.704H62.7338V48H59.3498V46.056C58.9178 46.68 58.3178 47.2 57.5498 47.616C56.7978 48.016 55.9258 48.216 54.9338 48.216C53.8138 48.216 52.7898 47.928 51.8618 47.352C50.9498 46.776 50.2218 45.968 49.6777 44.928C49.1497 43.872 48.8857 42.664 48.8857 41.304ZM59.3498 41.352C59.3498 40.536 59.1898 39.84 58.8698 39.264C58.5498 38.672 58.1178 38.224 57.5738 37.92C57.0298 37.6 56.4458 37.44 55.8218 37.44C55.1978 37.44 54.6218 37.592 54.0938 37.896C53.5658 38.2 53.1338 38.648 52.7978 39.24C52.4778 39.816 52.3178 40.504 52.3178 41.304C52.3178 42.104 52.4778 42.808 52.7978 43.416C53.1338 44.008 53.5658 44.464 54.0938 44.784C54.6378 45.104 55.2138 45.264 55.8218 45.264C56.4458 45.264 57.0298 45.112 57.5738 44.808C58.1178 44.488 58.5498 44.04 58.8698 43.464C59.1898 42.872 59.3498 42.168 59.3498 41.352ZM65.5114 39.6C65.5114 37.952 65.8714 36.48 66.5914 35.184C67.3114 33.872 68.2954 32.856 69.5434 32.136C70.7914 31.4 72.1834 31.032 73.7194 31.032C75.5914 31.032 77.1914 31.48 78.5194 32.376C79.8634 33.256 80.8394 34.504 81.4474 36.12H79.4794C78.9994 34.984 78.2634 34.096 77.2714 33.456C76.2954 32.816 75.1114 32.496 73.7194 32.496C72.4874 32.496 71.3754 32.784 70.3834 33.36C69.4074 33.936 68.6394 34.768 68.0794 35.856C67.5194 36.928 67.2394 38.176 67.2394 39.6C67.2394 41.024 67.5194 42.272 68.0794 43.344C68.6394 44.416 69.4074 45.24 70.3834 45.816C71.3754 46.392 72.4874 46.68 73.7194 46.68C75.1114 46.68 76.2954 46.368 77.2714 45.744C78.2634 45.104 78.9994 44.224 79.4794 43.104H81.4474C80.8394 44.704 79.8634 45.944 78.5194 46.824C77.1754 47.704 75.5754 48.144 73.7194 48.144C72.1834 48.144 70.7914 47.784 69.5434 47.064C68.2954 46.328 67.3114 45.312 66.5914 44.016C65.8714 42.72 65.5114 41.248 65.5114 39.6ZM91.035 34.656C92.027 34.656 92.915 34.864 93.699 35.28C94.499 35.696 95.123 36.336 95.571 37.2C96.035 38.048 96.267 39.088 96.267 40.32V48H94.611V40.512C94.611 39.088 94.251 38 93.531 37.248C92.827 36.496 91.859 36.12 90.627 36.12C89.363 36.12 88.355 36.52 87.603 37.32C86.851 38.12 86.475 39.296 86.475 40.848V48H84.795V30.24H86.475V37.128C86.891 36.344 87.499 35.736 88.299 35.304C89.115 34.872 90.027 34.656 91.035 34.656ZM99.2145 41.424C99.2145 40.08 99.4785 38.904 100.007 37.896C100.551 36.872 101.295 36.088 102.239 35.544C103.199 34.984 104.279 34.704 105.479 34.704C106.727 34.704 107.799 34.992 108.695 35.568C109.607 36.144 110.263 36.88 110.663 37.776V34.896H112.343V48H110.663V45.096C110.247 45.992 109.583 46.736 108.671 47.328C107.775 47.904 106.703 48.192 105.455 48.192C104.271 48.192 103.199 47.912 102.239 47.352C101.295 46.792 100.551 46 100.007 44.976C99.4785 43.952 99.2145 42.768 99.2145 41.424ZM110.663 41.448C110.663 40.392 110.447 39.464 110.015 38.664C109.583 37.864 108.991 37.248 108.239 36.816C107.503 36.384 106.687 36.168 105.791 36.168C104.863 36.168 104.031 36.376 103.295 36.792C102.559 37.208 101.975 37.816 101.543 38.616C101.127 39.4 100.919 40.336 100.919 41.424C100.919 42.496 101.127 43.44 101.543 44.256C101.975 45.056 102.559 45.672 103.295 46.104C104.031 46.52 104.863 46.728 105.791 46.728C106.687 46.728 107.503 46.512 108.239 46.08C108.991 45.648 109.583 45.032 110.015 44.232C110.447 43.432 110.663 42.504 110.663 41.448ZM118.362 36.312V44.448C118.362 45.248 118.514 45.8 118.818 46.104C119.122 46.408 119.658 46.56 120.426 46.56H121.962V48H120.162C118.978 48 118.098 47.728 117.522 47.184C116.946 46.624 116.658 45.712 116.658 44.448V36.312H114.834V34.896H116.658V31.608H118.362V34.896H121.962V36.312H118.362Z" fill="black"/>
<path d="M157.567 48.8729C158.035 48.8593 158.404 48.4691 158.391 48.001C158.376 47.5327 157.979 47.1668 157.519 47.1776L151.22 47.3592C151.218 47.3571 151.215 47.3556 151.212 47.3535L151.063 47.3635L150.779 47.3721C150.756 47.3727 150.736 47.3845 150.714 47.387L137 48.3086L143.554 36.6455C142.128 32.6941 141.711 28.3226 142.563 23.8982C145.086 10.7882 157.76 2.20609 170.87 4.72963C183.98 7.25317 192.562 19.9268 190.038 33.0368C187.515 46.1467 174.841 54.7289 161.731 52.2053C158.73 51.6277 155.969 50.5148 153.522 48.9891L157.567 48.8729Z" fill="url(#paint0_linear)"/>
<defs>
<linearGradient id="paint0_linear" x1="170.453" y1="4.64947" x2="161.154" y2="52.9581" gradientUnits="userSpaceOnUse">
<stop stop-color="#7C6BFF"/>
<stop offset="1" stop-color="#48AAFF"/>
</linearGradient>
</defs>
</svg>
