<svg width="43" height="43" viewBox="0 0 43 43" fill="none" xmlns="http://www.w3.org/2000/svg">
<circle cx="21.5" cy="21.5" r="21.5" fill="#23ADB4"/>
<path fill-rule="evenodd" clip-rule="evenodd" d="M21.5006 10C15.1488 10 10 15.1488 10 21.4994C10 27.8512 15.1488 33 21.5006 33C27.8512 33 33 27.8512 33 21.4994C33 15.1488 27.8512 10 21.5006 10ZM24.0005 13.9266L24.194 13.2259C24.3791 12.5529 25.1302 12.1923 25.76 12.4916C27.8464 13.4783 29.5362 15.1669 30.5242 17.2533C30.827 17.8951 30.4436 18.6583 29.7526 18.8242L29.0399 18.996C28.5579 19.1126 28.0459 18.8927 27.8296 18.4468C27.1349 17.0214 25.9775 15.8652 24.5497 15.1741C24.0882 14.9518 23.8647 14.4206 24.0005 13.9266ZM12.4806 17.2411C13.4674 15.1547 15.156 13.4649 17.2424 12.477C17.8842 12.1729 18.6474 12.5575 18.8132 13.2486L18.9851 13.9613C19.1005 14.4432 18.8818 14.9552 18.4359 15.1715C17.0093 15.8662 15.8531 17.0236 15.1632 18.4514C14.9409 18.9129 14.4096 19.1365 13.9157 19.0007L13.2138 18.8072C12.5419 18.6221 12.1814 17.8721 12.4806 17.2411ZM18.9887 29.0856L18.7964 29.7875C18.6113 30.4593 17.8602 30.8199 17.2304 30.5218C15.144 29.5339 13.4541 27.8453 12.4662 25.7588C12.1621 25.117 12.5467 24.3539 13.2378 24.188L13.9505 24.0161C14.4325 23.9008 14.9444 24.1195 15.1608 24.5654C15.8543 25.992 17.0128 27.1482 18.4407 27.838C18.9022 28.0604 19.1257 28.5916 18.9887 29.0856ZM16.0093 21.5186C16.0093 18.4755 18.4767 16.0092 21.5198 16.0092C24.5629 16.0092 27.0292 18.4755 27.0292 21.5186C27.0292 24.5617 24.5629 27.0291 21.5198 27.0291C18.4767 27.0291 16.0093 24.5617 16.0093 21.5186ZM30.5097 25.7708C29.523 27.8573 27.8344 29.5471 25.748 30.535C25.105 30.8391 24.343 30.4545 24.1771 29.7634L24.0053 29.0507C23.8887 28.5688 24.1086 28.0568 24.5545 27.8404C25.9811 27.147 27.1361 25.9884 27.8272 24.5606C28.0495 24.099 28.5808 23.8755 29.0747 24.0125L29.7754 24.2048C30.4485 24.3899 30.8078 25.1411 30.5097 25.7708Z" fill="white"/>
</svg>
