<svg width="16" height="16" viewBox="0 0 16 16" fill="none" xmlns="http://www.w3.org/2000/svg">
<path d="M13.4563 10.0091C12.8781 9.43827 12.1562 9.43827 11.5816 10.0091C11.1433 10.4437 10.705 10.8783 10.2741 11.3203C10.1562 11.4418 10.0568 11.4676 9.91313 11.3866C9.62953 11.2319 9.32751 11.1067 9.05496 10.9373C7.78427 10.1381 6.71984 9.11048 5.77695 7.954C5.30919 7.37945 4.893 6.76438 4.60203 6.07197C4.5431 5.93201 4.55415 5.83993 4.66833 5.72576C5.10662 5.30221 5.53387 4.86761 5.96479 4.43301C6.56515 3.82899 6.56515 3.12185 5.96111 2.51414C5.61858 2.16794 5.27605 1.82909 4.93351 1.48289C4.57993 1.12932 4.23003 0.77206 3.87277 0.42217C3.29451 -0.141336 2.57261 -0.141336 1.99804 0.425854C1.55607 0.860453 1.1325 1.3061 0.68316 1.73334C0.266964 2.12742 0.0570248 2.6099 0.012827 3.17341C-0.0571528 4.09049 0.167519 4.956 0.48427 5.79942C1.1325 7.54519 2.11959 9.09575 3.31661 10.5174C4.93351 12.44 6.86348 13.9611 9.12125 15.0586C10.1378 15.5521 11.1912 15.9315 12.3366 15.9941C13.1248 16.0383 13.8099 15.8394 14.3587 15.2243C14.7344 14.8045 15.1579 14.4214 15.5557 14.02C16.145 13.4233 16.1487 12.7015 15.5631 12.1122C14.8633 11.4087 14.1598 10.7089 13.4563 10.0091Z" fill="white"/>
</svg>
