<svg width="24" height="24" viewBox="0 0 24 24" fill="none" xmlns="http://www.w3.org/2000/svg">
<path d="M22.5 12C22.5 17.799 17.799 22.5 12 22.5C6.20101 22.5 1.5 17.799 1.5 12C1.5 6.20101 6.20101 1.5 12 1.5C17.799 1.5 22.5 6.20101 22.5 12Z" stroke="#FBFBFB" stroke-width="3"/>
<path fill-rule="evenodd" clip-rule="evenodd" d="M16.9615 12.3876L9.49604 15.9576C9.31024 16.0392 9.19079 16.08 9.1377 16.08C9.01826 16.08 8.90545 16.0426 8.79927 15.9678C8.69309 15.893 8.64001 15.7944 8.64001 15.672V8.328C8.64001 8.2056 8.69309 8.107 8.79927 8.0322C8.90545 7.9574 9.01826 7.92 9.1377 7.92C9.19079 7.92 9.31024 7.9608 9.49604 8.0424L16.9615 11.6124C17.1738 11.7212 17.28 11.8504 17.28 12C17.28 12.1496 17.1738 12.2788 16.9615 12.3876Z" fill="#FBFBFB"/>
</svg>
