<svg width="43" height="43" viewBox="0 0 43 43" fill="none" xmlns="http://www.w3.org/2000/svg">
<circle cx="21.5" cy="21.5" r="21.5" fill="#304DF8"/>
<path fill-rule="evenodd" clip-rule="evenodd" d="M21.5 11C15.7012 11 11 15.7004 11 21.4995C11 27.2986 15.7012 32 21.5 32C27.2988 32 32 27.2986 32 21.4995C32 15.7004 27.2988 11 21.5 11ZM23.7413 29.5012C23.0142 29.704 22.3027 29.1131 22.3027 28.3584V27.246C22.3027 26.803 21.945 26.4453 21.502 26.4453C21.06 26.4453 20.7013 26.803 20.7013 27.246V28.3594C20.7013 29.114 19.9908 29.705 19.2636 29.5021C16.4754 28.725 14.2792 26.5306 13.4991 23.7432C13.2962 23.016 13.8862 22.3045 14.6418 22.3045H15.761C16.203 22.3045 16.5617 21.9468 16.5617 21.5038C16.5617 21.0618 16.203 20.7031 15.761 20.7031H14.6398C13.8852 20.7031 13.2943 19.9925 13.4971 19.2653C14.2743 16.4741 16.4725 14.2748 19.2636 13.4966C19.9908 13.2937 20.7013 13.8837 20.7013 14.6394V15.7625C20.7013 16.2045 21.06 16.5632 21.502 16.5632C21.945 16.5632 22.3027 16.2045 22.3027 15.7625V14.6403C22.3027 13.8847 23.0142 13.2947 23.7413 13.4976C26.5305 14.2777 28.7258 16.475 29.5029 19.2653C29.7058 19.9925 29.1148 20.7031 28.3602 20.7031H27.244C26.802 20.7031 26.4433 21.0618 26.4433 21.5038C26.4433 21.9468 26.802 22.3045 27.244 22.3045H28.3533C29.1511 22.3045 29.696 23.0788 29.4716 23.8442C28.6679 26.5815 26.4933 28.7318 23.7413 29.5012Z" fill="white"/>
</svg>
