<svg width="43" height="43" viewBox="0 0 43 43" fill="none" xmlns="http://www.w3.org/2000/svg">
<circle cx="21.5" cy="21.5" r="21.5" fill="#57B7FF"/>
<path fill-rule="evenodd" clip-rule="evenodd" d="M20.2242 24.3057C21.2635 25.2921 21.374 27.2783 19.5036 28.6289C17.392 30.2824 13.8834 30.624 13.0188 28.6289C12.958 28.7899 13.0685 28.6965 13.0188 28.6289C13.2717 28.5614 14.8994 27.8067 15.1804 25.7468C15.9104 24.2367 18.4394 22.6403 20.2242 24.3057ZM28.8705 15.6593C28.5228 14.7642 27.5163 14.7966 26.7089 15.6593C26.0067 16.5413 24.444 18.2572 22.3858 19.9825C21.8336 20.7429 21.1433 20.5398 20.2242 21.4236C20.3262 21.3558 19.7338 21.9489 19.5036 22.1441C19.4421 22.2395 19.4819 22.5383 19.5036 22.8646C19.988 22.7553 20.5546 23.0136 20.9447 23.5852C21.5183 23.9761 21.7769 24.5419 21.6652 25.0262C21.9943 25.0475 22.2934 25.0879 22.3858 25.0262C22.5851 24.7965 23.1782 24.2042 23.1063 24.3057C23.9953 23.3882 23.792 22.6987 24.5473 22.1441C26.2808 20.0916 27.9989 18.531 28.8705 17.8209C29.7458 17.0232 29.7546 15.9945 28.8705 15.6593Z" fill="white"/>
</svg>
