<svg width="43" height="43" viewBox="0 0 43 43" fill="none" xmlns="http://www.w3.org/2000/svg">
<circle cx="21.5" cy="21.5" r="21.5" fill="#6AAB2F"/>
<g clip-path="url(#clip0)">
<path d="M30.6082 15.9428C30.5212 15.9094 30.4375 15.8926 30.3571 15.8926C30.1762 15.8926 30.0257 15.9564 29.9051 16.0835L25.8571 20.1215V18.4642C25.8571 17.6672 25.5741 16.986 25.0083 16.4201C24.4424 15.8542 23.7612 15.5713 22.9641 15.5713H15.8928C15.096 15.5713 14.4146 15.8542 13.8487 16.4201C13.2829 16.986 13 17.6672 13 18.4642V25.5356C13 26.3325 13.2829 27.0137 13.8487 27.5796C14.4146 28.1455 15.096 28.4284 15.8928 28.4284H22.9642C23.7612 28.4284 24.4424 28.1455 25.0083 27.5796C25.5742 27.0137 25.8571 26.3325 25.8571 25.5356V23.8681L29.9052 27.9162C30.0258 28.0433 30.1763 28.107 30.3572 28.107C30.4376 28.107 30.5213 28.0902 30.6083 28.0569C30.8696 27.943 31.0001 27.7455 31.0001 27.4643V16.5356C31 16.2542 30.8695 16.0567 30.6082 15.9428Z" fill="white"/>
</g>
<defs>
<clipPath id="clip0">
<rect width="18" height="18" fill="white" transform="translate(13 13)"/>
</clipPath>
</defs>
</svg>
